<svg xmlns="http://www.w3.org/2000/svg" version="1.1" width="32px" height="32px" viewBox="0 0 1024 1024" style="shape-rendering:geometricPrecision; text-rendering:geometricPrecision; image-rendering:optimizeQuality; fill-rule:evenodd; clip-rule:evenodd" xmlns:xlink="http://www.w3.org/1999/xlink">
<g><path style="opacity:1" fill="#9ad8e8" d="M -0.5,-0.5 C 340.833,-0.5 682.167,-0.5 1023.5,-0.5C 1023.5,340.833 1023.5,682.167 1023.5,1023.5C 682.167,1023.5 340.833,1023.5 -0.5,1023.5C -0.5,682.167 -0.5,340.833 -0.5,-0.5 Z"/></g>
<g><path style="opacity:1" fill="#2f763f" d="M 576.5,131.5 C 586.878,131.196 597.211,131.696 607.5,133C 621.369,134.85 632.869,141.016 642,151.5C 647.248,161.67 653.248,171.337 660,180.5C 674.125,195.156 690.958,205.656 710.5,212C 749.833,228.667 789.167,245.333 828.5,262C 859.858,277.864 868.358,302.03 854,334.5C 847.781,348.605 840.781,362.271 833,375.5C 818.503,396.491 804.503,417.824 791,439.5C 783.011,452.463 778.178,466.463 776.5,481.5C 776.386,485.708 777.219,489.708 779,493.5C 784.69,500.188 790.69,506.522 797,512.5C 804.478,525.819 807.812,540.153 807,555.5C 807.333,574.167 807.667,592.833 808,611.5C 808.379,629.035 813.379,645.035 823,659.5C 827.199,664.034 831.699,668.201 836.5,672C 845.107,677.22 853.274,683.053 861,689.5C 866.667,698.149 868.001,707.482 865,717.5C 859.631,731.543 851.131,743.376 839.5,753C 826.016,764.24 812.35,775.24 798.5,786C 781.488,797.839 762.821,805.839 742.5,810C 728.322,812.36 714.322,811.694 700.5,808C 687.857,803.785 675.524,798.785 663.5,793C 634.77,780.967 607.77,783.967 582.5,802C 574.796,809.033 568.63,817.2 564,826.5C 560.488,838.214 556.822,849.88 553,861.5C 543.983,876.441 530.816,885.608 513.5,889C 499.503,890.974 485.503,890.974 471.5,889C 456.571,885.935 441.904,881.935 427.5,877C 370.648,855.747 313.648,834.747 256.5,814C 220.121,799.068 208.288,772.902 221,735.5C 242.014,696.114 254.014,654.114 257,609.5C 260.614,575.107 260.281,540.774 256,506.5C 250.478,471.289 235.311,441.122 210.5,416C 196.534,404.683 181.868,394.349 166.5,385C 145.074,368.797 140.241,348.63 152,324.5C 164.048,308.218 180.214,298.718 200.5,296C 205.509,295.59 210.509,295.09 215.5,294.5C 234.836,297.582 253.503,295.416 271.5,288C 298.377,274.762 323.377,258.762 346.5,240C 358.715,231.893 372.048,226.56 386.5,224C 400.5,224 414.5,224 428.5,224C 445.238,221.216 459.072,213.383 470,200.5C 477.579,190.342 484.912,180.009 492,169.5C 507.006,153.74 525.173,143.24 546.5,138C 556.559,135.595 566.559,133.428 576.5,131.5 Z"/></g>
<g><path style="opacity:1" fill="#deeabb" d="M 787.5,540.5 C 788.45,559.806 788.783,579.14 788.5,598.5C 787.542,589.517 786.875,572.517 786.5,547.5C 786.503,544.975 786.837,542.641 787.5,540.5 Z"/></g>
<g><path style="opacity:1" fill="#bad1a2" d="M 787.5,540.5 C 786.837,542.641 786.503,544.975 786.5,547.5C 786.875,572.517 787.542,589.517 788.5,598.5C 788.299,620.865 793.132,642.198 803,662.5C 807.669,669.649 813.169,676.149 819.5,682C 828.333,688.167 837.167,694.333 846,700.5C 848.33,703.459 848.996,706.793 848,710.5C 845.164,717.331 841.498,723.664 837,729.5C 819.995,745.847 801.828,760.68 782.5,774C 768.519,783.659 753.185,789.992 736.5,793C 725.307,794.1 714.307,793.1 703.5,790C 690.396,784.949 677.396,779.616 664.5,774C 624.427,760.562 589.594,768.729 560,798.5C 556.084,803.996 552.418,809.663 549,815.5C 544.605,827.352 540.605,839.352 537,851.5C 533.082,859.752 526.916,865.585 518.5,869C 495.464,874.379 472.798,873.046 450.5,865C 386.489,841.663 322.489,818.33 258.5,795C 235.387,783.931 228.554,766.431 238,742.5C 257.888,705.297 269.888,665.631 274,623.5C 277.261,590.912 278.261,558.245 277,525.5C 274.217,488.325 262.55,454.325 242,423.5C 233.991,412.992 224.825,403.658 214.5,395.5C 201.846,386.172 188.846,377.339 175.5,369C 159.614,354.383 159.614,339.716 175.5,325C 183.9,319.195 193.233,315.529 203.5,314C 219.833,313.667 236.167,313.333 252.5,313C 261.765,311.199 270.765,308.533 279.5,305C 306.377,291.762 331.377,275.762 354.5,257C 373.725,242.49 395.225,237.656 419,242.5C 445.721,242.139 467.721,231.805 485,211.5C 491.493,203.182 497.493,194.515 503,185.5C 510.665,176.169 519.831,168.669 530.5,163C 549.803,155.341 569.803,150.841 590.5,149.5C 612.989,147.98 628.155,157.646 636,178.5C 650.021,200.171 669.188,215.671 693.5,225C 735.97,243.381 778.636,261.381 821.5,279C 830.303,282.804 836.803,288.971 841,297.5C 841.667,303.167 841.667,308.833 841,314.5C 835.691,333.1 827.691,350.433 817,366.5C 799.056,391.117 782.723,416.783 768,443.5C 762.61,455.292 759.443,467.625 758.5,480.5C 758.36,490.277 760.86,499.277 766,507.5C 772.393,513.557 778.393,519.891 784,526.5C 785.913,530.978 787.08,535.645 787.5,540.5 Z"/></g>
</svg>
